<svg width="180" height="28" viewBox="0 0 180 28" fill="none" xmlns="http://www.w3.org/2000/svg">
<g clip-path="url(#clip0_326_4547)">
<path d="M25.6256 13.8532H20.8929C21.8999 14.8453 22.7935 15.7379 23.7012 16.6154C24.0326 16.9353 24.3175 17.5189 24.7147 17.4951C25.0579 17.4745 25.3752 16.9429 25.6947 16.6284C26.474 15.8579 27.2381 15.0701 28.0303 14.3125C28.2753 14.078 28.2559 13.9527 28.026 13.7236C25.3515 11.0597 22.7763 8.2889 19.9971 5.7407C16.9567 2.95367 13.355 2.69431 9.64438 4.21372C5.43294 5.93738 2.88039 10.4113 3.34017 14.9933C3.80859 19.6715 7.12637 23.456 11.6098 24.4027C13.1985 24.7377 14.7862 24.7107 16.3501 24.2427C16.6178 24.1628 16.8012 24.1693 17.0041 24.394C17.7489 25.2197 18.5152 26.0258 19.2642 26.8309C15.1801 28.5178 11.0507 28.4433 7.11233 26.1652C2.24036 23.348 -0.125472 19.0037 0.00512372 13.3875C0.187526 5.49215 7.31092 -0.742205 15.1294 0.0715352C17.9539 0.365476 20.4212 1.47099 22.4503 3.48103C25.8976 6.89701 29.333 10.3249 32.7782 13.7419C32.9595 13.9224 33.0307 14.0143 32.803 14.239C30.1911 16.8121 27.5856 19.3927 24.9975 21.9896C24.6845 22.304 24.5485 22.2403 24.2689 21.9539C21.7229 19.3409 19.166 16.7365 16.5433 14.2001C16.4677 14.1277 16.363 14.0845 16.2724 14.0272C16.295 13.9894 16.3177 13.9505 16.3404 13.9127H20.84C20.9242 13.7895 20.8788 13.7365 20.8281 13.6847C19.7542 12.5975 18.6749 11.5168 17.6129 10.4189C17.3862 10.1844 17.2599 10.1714 17.0247 10.4156C16.0026 11.4769 14.9632 12.5229 13.9152 13.5571C13.6928 13.7765 13.7155 13.8975 13.9227 14.1061C16.6145 16.8035 19.2113 19.6024 22.0056 22.1873C24.9176 24.8803 28.4232 25.3429 32.0378 23.8764C36.2114 22.183 38.4553 18.8827 38.6453 14.4217C38.8384 9.86559 36.8223 6.40206 32.6875 4.33908C30.4879 3.24112 28.1469 3.06173 25.7648 3.70473C25.4454 3.79118 25.2489 3.74363 25.0277 3.49724C24.3089 2.69647 23.5641 1.91947 22.8237 1.12842C24.0412 0.536221 25.4378 0.199054 26.8841 0.0682932C34.1402 -0.585508 40.5383 4.33151 41.786 11.5104C43.0337 18.6903 38.6841 25.7006 31.7172 27.4923C27.033 28.6972 22.8162 27.6836 19.3225 24.2103C15.9572 20.8657 12.6211 17.4908 9.26123 14.1396C9.02918 13.9084 9.00543 13.8003 9.24828 13.5571C11.8634 10.9354 14.4667 8.30187 17.0667 5.66613C17.2448 5.48566 17.3463 5.41542 17.5697 5.63695C20.2831 8.33321 23.0083 11.0176 25.7303 13.7052C25.6958 13.7538 25.6602 13.8024 25.6256 13.8522V13.8532Z" fill="#CBFF00"/>
</g>
<path d="M55.264 22.5H52.456L58.192 5.7H61.576L67.312 22.5H64.384L62.992 18.348H56.68L55.264 22.5ZM59.8 8.628L57.352 15.996H62.272L59.8 8.628ZM77.4316 16.524V10.212H80.0236V22.5H77.7436L77.4556 20.964C76.7116 21.876 75.5596 22.644 73.7596 22.644C71.2396 22.644 69.0076 21.3 69.0076 17.22V10.212H71.6236V16.956C71.6236 19.14 72.5356 20.34 74.3596 20.34C76.2556 20.34 77.4316 18.948 77.4316 16.524ZM92.4188 22.5H88.8668C86.5148 22.5 85.5068 21.396 85.5068 19.164V12.492H82.4348V10.212H85.5068V6.78H88.1228V10.212H92.2988V12.492H88.1228V18.9C88.1228 19.86 88.4588 20.22 89.4428 20.22H92.4188V22.5ZM100.477 22.644C96.7814 22.644 94.2854 20.124 94.2854 16.356C94.2854 12.612 96.7814 10.068 100.477 10.068C104.149 10.068 106.669 12.612 106.669 16.356C106.669 20.124 104.149 22.644 100.477 22.644ZM100.477 20.436C102.589 20.436 104.005 18.732 104.005 16.356C104.005 13.98 102.589 12.276 100.477 12.276C98.3414 12.276 96.9254 13.98 96.9254 16.356C96.9254 18.732 98.3414 20.436 100.477 20.436ZM121.604 10.068C124.1 10.068 125.636 11.748 125.636 14.604V22.5H123.116V14.844C123.116 13.38 122.468 12.396 121.1 12.396C119.708 12.396 118.892 13.476 118.892 14.916V22.5H116.372V14.844C116.372 13.5 115.844 12.396 114.308 12.396C112.916 12.396 112.148 13.476 112.148 14.988V22.5H109.628V10.212H111.764L111.932 11.46C112.604 10.572 113.66 10.068 114.98 10.068C116.396 10.068 117.548 10.764 118.148 11.892C118.892 10.764 120.068 10.068 121.604 10.068ZM133.209 8.316C132.249 8.316 131.481 7.596 131.481 6.588C131.481 5.604 132.249 4.884 133.209 4.884C134.193 4.884 134.961 5.604 134.961 6.588C134.961 7.596 134.193 8.316 133.209 8.316ZM134.529 20.22H138.033V22.5H128.361V20.22H131.913V12.492H128.361V10.212H134.529V20.22ZM145.615 22.644C141.919 22.644 139.567 20.22 139.567 16.38C139.567 12.588 141.991 10.068 145.687 10.068C148.831 10.068 150.799 11.82 151.279 14.604H148.567C148.231 13.164 147.199 12.276 145.639 12.276C143.575 12.276 142.207 13.98 142.207 16.38C142.207 18.78 143.575 20.436 145.639 20.436C147.175 20.436 148.231 19.524 148.543 18.108H151.279C150.823 20.892 148.735 22.644 145.615 22.644ZM162.416 16.524V10.212H165.008V22.5H162.728L162.44 20.964C161.696 21.876 160.544 22.644 158.744 22.644C156.224 22.644 153.992 21.3 153.992 17.22V10.212H156.608V16.956C156.608 19.14 157.52 20.34 159.344 20.34C161.24 20.34 162.416 18.948 162.416 16.524ZM173.373 22.644C170.133 22.644 167.901 21.108 167.805 18.444H170.349C170.445 19.716 171.549 20.628 173.397 20.628C174.957 20.628 175.989 20.004 175.989 19.02C175.989 17.7 174.885 17.604 173.037 17.364C170.253 17.028 168.069 16.428 168.069 13.884C168.069 11.556 170.133 10.068 173.037 10.068C176.037 10.068 178.149 11.46 178.317 13.98H175.773C175.629 12.852 174.597 12.06 173.085 12.06C171.597 12.06 170.589 12.684 170.589 13.668C170.589 14.82 171.765 14.964 173.517 15.156C176.253 15.492 178.533 16.068 178.533 18.804C178.533 21.156 176.325 22.644 173.373 22.644Z" fill="black"/>
<defs>
<clipPath id="clip0_326_4547">
<rect width="42" height="28" fill="white"/>
</clipPath>
</defs>
</svg>
