<svg width="180" height="36" viewBox="0 0 180 36" fill="none" xmlns="http://www.w3.org/2000/svg">
<g clip-path="url(#clip0_329_1688)">
<path d="M25.6256 17.8534H20.8929C21.8999 18.8442 22.7935 19.7357 23.7012 20.6121C24.0326 20.9315 24.3175 21.5144 24.7147 21.4906C25.0579 21.4701 25.3752 20.9391 25.6947 20.625C26.474 19.8555 27.2381 19.0687 28.0303 18.3121C28.2753 18.0779 28.2559 17.9527 28.026 17.7239C25.3515 15.0634 22.7763 12.296 19.9971 9.75105C16.9567 6.96752 13.355 6.70849 9.64438 8.22599C5.43294 9.94748 2.88039 14.4158 3.34017 18.992C3.80859 23.6643 7.12637 27.4441 11.6098 28.3895C13.1985 28.7241 14.7862 28.6971 16.3501 28.2298C16.6178 28.1499 16.8012 28.1564 17.0041 28.3809C17.7489 29.2055 18.5152 30.0106 19.2642 30.8147C15.1801 32.4995 11.0507 32.425 7.11233 30.1499C2.24036 27.3361 -0.125472 22.9973 0.00512372 17.3882C0.187526 9.50281 7.31092 3.27631 15.1294 4.08902C17.9539 4.38259 20.4212 5.48672 22.4503 7.49422C25.8976 10.9059 29.333 14.3295 32.7782 17.7422C32.9595 17.9225 33.0307 18.0142 32.803 18.2387C30.1911 20.8085 27.5856 23.3859 24.9975 25.9794C24.6845 26.2935 24.5485 26.2298 24.2689 25.9438C21.7229 23.3341 19.166 20.733 16.5433 18.1998C16.4677 18.1275 16.363 18.0843 16.2724 18.0271C16.295 17.9894 16.3177 17.9505 16.3404 17.9127H20.84C20.9242 17.7897 20.8788 17.7368 20.8281 17.685C19.7542 16.5992 18.6749 15.5199 17.6129 14.4233C17.3862 14.1891 17.2599 14.1762 17.0247 14.4201C16.0026 15.48 14.9632 16.5248 13.9152 17.5576C13.6928 17.7767 13.7155 17.8976 13.9227 18.1059C16.6145 20.7999 19.2113 23.5953 22.0056 26.177C24.9176 28.8666 28.4232 29.3285 32.0378 27.8639C36.2114 26.1726 38.4553 22.8764 38.6453 18.4211C38.8384 13.8707 36.8223 10.4116 32.6875 8.35119C30.4879 7.25462 28.1469 7.07545 25.7648 7.71764C25.4454 7.80398 25.2489 7.75649 25.0277 7.51041C24.3089 6.71065 23.5641 5.93463 22.8237 5.14458C24.0412 4.55312 25.4378 4.21638 26.8841 4.08579C34.1402 3.43281 40.5383 8.34364 41.786 15.5134C43.0337 22.6843 38.6841 29.6858 31.7172 31.4753C27.033 32.6787 22.8162 31.6663 19.3225 28.1974C15.9572 24.857 12.6211 21.4863 9.26123 18.1394C9.02918 17.9084 9.00543 17.8005 9.24828 17.5576C11.8634 14.9393 14.4667 12.309 17.0667 9.67658C17.2448 9.49633 17.3463 9.42618 17.5697 9.64743C20.2831 12.3403 23.0083 15.0213 25.7303 17.7055C25.6958 17.7541 25.6602 17.8026 25.6256 17.8523V17.8534Z" fill="#CBFF00"/>
</g>
<path d="M172.916 26.8802C169.676 26.8802 167.444 25.3442 167.348 22.6802H169.892C169.988 23.9522 171.092 24.8642 172.94 24.8642C174.5 24.8642 175.532 24.2402 175.532 23.2562C175.532 21.9362 174.428 21.8402 172.58 21.6002C169.796 21.2642 167.612 20.6642 167.612 18.1202C167.612 15.7922 169.676 14.3042 172.58 14.3042C175.58 14.3042 177.692 15.6962 177.86 18.2162H175.316C175.172 17.0882 174.14 16.2962 172.628 16.2962C171.14 16.2962 170.132 16.9202 170.132 17.9042C170.132 19.0562 171.308 19.2002 173.06 19.3922C175.796 19.7282 178.076 20.3042 178.076 23.0402C178.076 25.3922 175.868 26.8802 172.916 26.8802Z" fill="white"/>
<path d="M161.959 20.7602V14.4482H164.551V26.7362H162.271L161.983 25.2002C161.239 26.1122 160.087 26.8802 158.287 26.8802C155.767 26.8802 153.535 25.5362 153.535 21.4562V14.4482H156.151V21.1922C156.151 23.3762 157.063 24.5762 158.887 24.5762C160.783 24.5762 161.959 23.1842 161.959 20.7602Z" fill="white"/>
<path d="M145.157 26.8802C141.461 26.8802 139.109 24.4562 139.109 20.6162C139.109 16.8242 141.533 14.3042 145.229 14.3042C148.373 14.3042 150.341 16.0562 150.821 18.8402H148.109C147.773 17.4002 146.741 16.5122 145.181 16.5122C143.117 16.5122 141.749 18.2162 141.749 20.6162C141.749 23.0162 143.117 24.6722 145.181 24.6722C146.717 24.6722 147.773 23.7602 148.085 22.3442H150.821C150.365 25.1282 148.277 26.8802 145.157 26.8802Z" fill="white"/>
<path d="M132.754 12.5521C131.794 12.5521 131.026 11.8321 131.026 10.8241C131.026 9.84012 131.794 9.12012 132.754 9.12012C133.738 9.12012 134.506 9.84012 134.506 10.8241C134.506 11.8321 133.738 12.5521 132.754 12.5521ZM134.074 24.4561H137.578V26.7361H127.906V24.4561H131.458V16.7281H127.906V14.4481H134.074V24.4561Z" fill="white"/>
<path d="M121.148 14.3042C123.644 14.3042 125.18 15.9842 125.18 18.8402V26.7362H122.66V19.0802C122.66 17.6162 122.012 16.6322 120.644 16.6322C119.252 16.6322 118.436 17.7122 118.436 19.1522V26.7362H115.916V19.0802C115.916 17.7362 115.388 16.6322 113.852 16.6322C112.46 16.6322 111.692 17.7122 111.692 19.2242V26.7362H109.172V14.4482H111.308L111.476 15.6962C112.148 14.8082 113.204 14.3042 114.524 14.3042C115.94 14.3042 117.092 15.0002 117.692 16.1282C118.436 15.0002 119.612 14.3042 121.148 14.3042Z" fill="white"/>
<path d="M100.02 26.8802C96.3241 26.8802 93.8281 24.3602 93.8281 20.5922C93.8281 16.8482 96.3241 14.3042 100.02 14.3042C103.692 14.3042 106.212 16.8482 106.212 20.5922C106.212 24.3602 103.692 26.8802 100.02 26.8802ZM100.02 24.6722C102.132 24.6722 103.548 22.9682 103.548 20.5922C103.548 18.2162 102.132 16.5122 100.02 16.5122C97.8841 16.5122 96.4681 18.2162 96.4681 20.5922C96.4681 22.9682 97.8841 24.6722 100.02 24.6722Z" fill="white"/>
<path d="M91.9606 26.7361H88.4086C86.0566 26.7361 85.0486 25.6321 85.0486 23.4001V16.7281H81.9766V14.4481H85.0486V11.0161H87.6646V14.4481H91.8406V16.7281H87.6646V23.1361C87.6646 24.0961 88.0006 24.4561 88.9846 24.4561H91.9606V26.7361Z" fill="white"/>
<path d="M76.9748 20.7602V14.4482H79.5668V26.7362H77.2868L76.9988 25.2002C76.2548 26.1122 75.1028 26.8802 73.3028 26.8802C70.7828 26.8802 68.5508 25.5362 68.5508 21.4562V14.4482H71.1668V21.1922C71.1668 23.3762 72.0788 24.5762 73.9028 24.5762C75.7988 24.5762 76.9748 23.1842 76.9748 20.7602Z" fill="white"/>
<path d="M54.808 26.7365H52L57.736 9.93652H61.12L66.856 26.7365H63.928L62.536 22.5845H56.224L54.808 26.7365ZM59.344 12.8645L56.896 20.2325H61.816L59.344 12.8645Z" fill="white"/>
<defs>
<clipPath id="clip0_329_1688">
<rect width="42" height="27.9647" fill="white" transform="translate(0 4.01758)"/>
</clipPath>
</defs>
</svg>
