<svg width="582" height="582" viewBox="0 0 582 582" fill="none" xmlns="http://www.w3.org/2000/svg">
<g clip-path="url(#clip0_333_4640)">
<rect width="582" height="582" rx="9" fill="#111518"/>
<g filter="url(#filter1_f_333_4640)">
<path d="M582 428C564.009 428 546.194 424.456 529.572 417.572C512.951 410.687 497.848 400.595 485.126 387.874C472.405 375.152 462.313 360.049 455.428 343.428C448.544 326.806 445 308.991 445 291C445 273.009 448.544 255.194 455.429 238.572C462.313 221.951 472.405 206.848 485.126 194.126C497.848 181.405 512.951 171.313 529.572 164.429C546.194 157.544 564.009 154 582 154L582 428Z" fill="#002744" fill-opacity="0.5"/>
</g>
<g filter="url(#filter2_f_333_4640)">
<path d="M-1.19769e-05 428C17.9911 428 35.806 424.456 52.4276 417.571C69.0492 410.687 84.152 400.595 96.8736 387.874C109.595 375.152 119.687 360.049 126.571 343.428C133.456 326.806 137 308.991 137 291C137 273.009 133.456 255.194 126.571 238.572C119.687 221.951 109.595 206.848 96.8736 194.126C84.152 181.405 69.0492 171.313 52.4276 164.428C35.806 157.544 17.9911 154 -1.52588e-05 154L-1.19769e-05 428Z" fill="#002744" fill-opacity="0.5"/>
</g>
<g filter="url(#filter3_f_333_4640)">
<path d="M428 0C428 17.9911 424.456 35.806 417.572 52.4276C410.687 69.0492 400.595 84.152 387.874 96.8736C375.152 109.595 360.049 119.687 343.428 126.571C326.806 133.456 308.991 137 291 137C273.009 137 255.194 133.456 238.572 126.571C221.951 119.687 206.848 109.595 194.126 96.8736C181.405 84.152 171.313 69.0492 164.429 52.4276C157.544 35.806 154 17.9911 154 -1.52588e-05L428 0Z" fill="#CBFF00" fill-opacity="0.5"/>
</g>
<g filter="url(#filter4_f_333_4640)">
<path d="M428 582C428 564.009 424.456 546.194 417.572 529.572C410.687 512.951 400.595 497.848 387.874 485.126C375.152 472.405 360.049 462.313 343.428 455.429C326.806 448.544 308.991 445 291 445C273.009 445 255.194 448.544 238.572 455.429C221.951 462.313 206.848 472.405 194.126 485.126C181.405 497.848 171.313 512.951 164.429 529.572C157.544 546.194 154 564.009 154 582L428 582Z" fill="#CBFF00" fill-opacity="0.5"/>
</g>
<g opacity="0.4" clip-path="url(#clip1_333_4640)">
<g clip-path="url(#clip2_333_4640)">
<rect width="1.04301" height="556.968" transform="translate(28.6836 12.5161)" fill="#171717"/>
<rect width="1.04301" height="556.968" transform="translate(61.0156 12.5161)" fill="#171717"/>
<rect width="1.04301" height="556.968" transform="translate(93.3477 12.5161)" fill="#171717"/>
<rect width="1.04301" height="556.968" transform="translate(125.684 12.5161)" fill="#171717"/>
<rect width="1.04301" height="556.968" transform="translate(158.016 12.5161)" fill="#171717"/>
<rect width="1.04301" height="556.968" transform="translate(190.348 12.5161)" fill="#171717"/>
<rect width="1.04301" height="556.968" transform="translate(222.684 12.5161)" fill="#171717"/>
<rect width="1.04301" height="556.968" transform="translate(255.016 12.5161)" fill="#171717"/>
<rect width="1.04301" height="556.968" transform="translate(287.348 12.5161)" fill="#171717"/>
<rect width="1.04301" height="556.968" transform="translate(319.684 12.5161)" fill="#171717"/>
<rect width="1.04301" height="556.968" transform="translate(352.016 12.5161)" fill="#171717"/>
<rect width="1.04301" height="556.968" transform="translate(384.348 12.5161)" fill="#171717"/>
<rect width="1.04301" height="556.968" transform="translate(416.684 12.5161)" fill="#171717"/>
<rect width="1.04301" height="556.968" transform="translate(449.016 12.5161)" fill="#171717"/>
<rect width="1.04301" height="556.968" transform="translate(481.348 12.5161)" fill="#171717"/>
<rect width="1.04301" height="556.968" transform="translate(513.684 12.5161)" fill="#171717"/>
<rect width="1.04301" height="556.968" transform="translate(546.016 12.5161)" fill="#171717"/>
<rect width="1.04301" height="556.968" transform="translate(578.348 12.5161)" fill="#171717"/>
<rect width="1.04301" height="834.409" transform="translate(708.203 31.812) rotate(90)" fill="#171717"/>
<rect width="1.04301" height="834.409" transform="translate(708.203 64.145) rotate(90)" fill="#171717"/>
<rect width="1.04301" height="834.409" transform="translate(708.203 96.4785) rotate(90)" fill="#171717"/>
<rect width="1.04301" height="834.409" transform="translate(708.203 128.812) rotate(90)" fill="#171717"/>
<rect width="1.04301" height="834.409" transform="translate(708.203 161.146) rotate(90)" fill="#171717"/>
<rect width="1.04301" height="834.409" transform="translate(708.203 193.479) rotate(90)" fill="#171717"/>
<rect width="1.04301" height="834.409" transform="translate(708.203 225.812) rotate(90)" fill="#171717"/>
<rect width="1.04301" height="834.409" transform="translate(708.203 258.146) rotate(90)" fill="#171717"/>
<rect width="1.04301" height="834.409" transform="translate(708.203 290.479) rotate(90)" fill="#171717"/>
<rect width="1.04301" height="834.409" transform="translate(708.203 322.812) rotate(90)" fill="#171717"/>
<rect width="1.04301" height="834.409" transform="translate(708.203 355.146) rotate(90)" fill="#171717"/>
<rect width="1.04301" height="834.409" transform="translate(708.203 387.479) rotate(90)" fill="#171717"/>
<rect width="1.04301" height="834.409" transform="translate(708.203 419.812) rotate(90)" fill="#171717"/>
<rect width="1.04301" height="834.409" transform="translate(708.203 452.146) rotate(90)" fill="#171717"/>
<rect width="1.04301" height="834.409" transform="translate(708.203 484.479) rotate(90)" fill="#171717"/>
<rect width="1.04301" height="834.409" transform="translate(708.203 516.812) rotate(90)" fill="#171717"/>
<rect width="1.04301" height="834.409" transform="translate(708.203 549.145) rotate(90)" fill="#171717"/>
</g>
<rect x="-126.203" y="407.817" width="834.409" height="208.602" fill="url(#paint0_linear_333_4640)"/>
<rect width="834.409" height="208.602" transform="matrix(1 0 0 -1 -126.203 174.183)" fill="url(#paint1_linear_333_4640)"/>
<rect width="625.806" height="208.602" transform="matrix(0 1 1 0 385.914 -9.38721)" fill="url(#paint2_linear_333_4640)"/>
<rect x="196.086" y="-9.38721" width="625.806" height="208.602" transform="rotate(90 196.086 -9.38721)" fill="url(#paint3_linear_333_4640)"/>
</g>
</g>
<defs>
<filter id="filter1_f_333_4640" x="195" y="-96" width="637" height="774" filterUnits="userSpaceOnUse" color-interpolation-filters="sRGB">
<feFlood flood-opacity="0" result="BackgroundImageFix"/>
<feBlend mode="normal" in="SourceGraphic" in2="BackgroundImageFix" result="shape"/>
<feGaussianBlur stdDeviation="125" result="effect1_foregroundBlur_333_4640"/>
</filter>
<filter id="filter2_f_333_4640" x="-250" y="-96" width="637" height="774" filterUnits="userSpaceOnUse" color-interpolation-filters="sRGB">
<feFlood flood-opacity="0" result="BackgroundImageFix"/>
<feBlend mode="normal" in="SourceGraphic" in2="BackgroundImageFix" result="shape"/>
<feGaussianBlur stdDeviation="125" result="effect1_foregroundBlur_333_4640"/>
</filter>
<filter id="filter3_f_333_4640" x="-96" y="-250" width="774" height="637" filterUnits="userSpaceOnUse" color-interpolation-filters="sRGB">
<feFlood flood-opacity="0" result="BackgroundImageFix"/>
<feBlend mode="normal" in="SourceGraphic" in2="BackgroundImageFix" result="shape"/>
<feGaussianBlur stdDeviation="125" result="effect1_foregroundBlur_333_4640"/>
</filter>
<filter id="filter4_f_333_4640" x="-96" y="195" width="774" height="637" filterUnits="userSpaceOnUse" color-interpolation-filters="sRGB">
<feFlood flood-opacity="0" result="BackgroundImageFix"/>
<feBlend mode="normal" in="SourceGraphic" in2="BackgroundImageFix" result="shape"/>
<feGaussianBlur stdDeviation="125" result="effect1_foregroundBlur_333_4640"/>
</filter>
<linearGradient id="paint0_linear_333_4640" x1="291.001" y1="407.817" x2="291.001" y2="616.42" gradientUnits="userSpaceOnUse">
<stop stop-color="#0A0A0A" stop-opacity="0"/>
<stop offset="1" stop-color="#0A0A0A"/>
</linearGradient>
<linearGradient id="paint1_linear_333_4640" x1="417.204" y1="0" x2="417.204" y2="208.602" gradientUnits="userSpaceOnUse">
<stop stop-color="#0A0A0A" stop-opacity="0"/>
<stop offset="1" stop-color="#0A0A0A"/>
</linearGradient>
<linearGradient id="paint2_linear_333_4640" x1="312.903" y1="0" x2="312.903" y2="208.602" gradientUnits="userSpaceOnUse">
<stop stop-color="#0A0A0A" stop-opacity="0"/>
<stop offset="1" stop-color="#0A0A0A"/>
</linearGradient>
<linearGradient id="paint3_linear_333_4640" x1="508.989" y1="-9.38721" x2="508.989" y2="199.215" gradientUnits="userSpaceOnUse">
<stop stop-color="#0A0A0A" stop-opacity="0"/>
<stop offset="1" stop-color="#0A0A0A"/>
</linearGradient>
<clipPath id="clip0_333_4640">
<rect width="582" height="582" rx="9" fill="white"/>
</clipPath>
<clipPath id="clip1_333_4640">
<rect width="582" height="582" fill="white"/>
</clipPath>
<clipPath id="clip2_333_4640">
<rect width="834.409" height="556.968" fill="white" transform="translate(-126.203 12.5161)"/>
</clipPath>
</defs>
</svg>
